# Blender v2.81 (sub 16) OBJ File: 'penny_bun2.blend'
# www.blender.org
mtllib penny_bun5.mtl
o mushroom_Cylinder
v -0.015079 -0.217953 0.000000
v -0.095301 -0.294074 -0.152702
v -0.159490 -0.300795 -0.088162
v -0.182984 -0.303258 0.000000
v -0.159490 -0.300795 0.088163
v -0.095301 -0.294074 0.152702
v -0.007619 -0.284881 0.176325
v 0.080063 -0.275687 0.152702
v 0.144249 -0.268947 0.088163
v 0.167743 -0.266484 0.000000
v 0.144249 -0.268947 -0.088162
v 0.080063 -0.275687 -0.152702
v -0.007619 -0.284881 -0.176325
v 0.047417 -0.501918 -0.073894
v 0.090080 -0.501918 0.000000
v 0.047417 -0.501918 0.073894
v -0.037909 -0.501918 0.073894
v -0.080571 -0.501918 0.000000
v -0.037909 -0.501918 -0.073894
v 0.019465 -0.321473 -0.041213
v 0.043130 -0.318992 0.000000
v 0.019465 -0.321473 0.041213
v -0.027864 -0.326436 0.041213
v -0.051529 -0.328917 0.000000
v -0.027864 -0.326436 -0.041213
v -0.004061 -0.325275 -0.041395
v 0.016524 -0.323117 -0.035849
v 0.031593 -0.321535 -0.020698
v 0.037108 -0.320956 0.000000
v 0.031593 -0.321535 0.020698
v 0.016524 -0.323117 0.035850
v -0.004061 -0.325275 0.041396
v -0.024646 -0.327434 0.035850
v -0.039715 -0.329011 0.020698
v -0.045231 -0.329590 0.000000
v -0.039715 -0.329011 -0.020698
v -0.024646 -0.327434 -0.035849
v -0.013123 -0.231236 -0.072469
v -0.010288 -0.261483 -0.144756
v 0.061687 -0.253925 -0.125350
v 0.022904 -0.227449 -0.062743
v 0.114366 -0.248386 -0.072366
v 0.049265 -0.224676 -0.036218
v 0.133647 -0.246361 0.000000
v 0.058912 -0.223661 0.000000
v 0.049265 -0.224676 0.036218
v 0.114366 -0.248386 0.072366
v 0.061687 -0.253925 0.125350
v 0.022904 -0.227449 0.062744
v -0.013122 -0.231236 0.072469
v -0.010288 -0.261483 0.144756
v -0.049168 -0.235023 0.062776
v -0.082277 -0.269041 0.125375
v -0.075567 -0.237794 0.036251
v -0.134987 -0.274568 0.072390
v -0.085232 -0.238809 0.000000
v -0.154282 -0.276594 0.000000
v -0.075567 -0.237794 -0.036250
v -0.134987 -0.274568 -0.072390
v -0.049168 -0.235023 -0.062776
v -0.082278 -0.269041 -0.125374
vt 0.335938 0.742188
vt 0.335938 0.789062
vt 0.242188 0.757812
vt 0.195312 0.992188
vt 0.085938 0.929688
vt 0.132812 0.882812
vt 0.195312 0.945312
vt 0.304688 0.710938
vt 0.164062 0.742188
vt 0.195312 0.710938
vt 0.304688 0.820312
vt 0.273438 0.851562
vt 0.195312 0.820312
vt 0.164062 0.789062
vt 0.304688 0.539062
vt 0.414062 0.601562
vt 0.367188 0.648438
vt 0.304688 0.585938
vt 0.226562 0.679688
vt 0.273438 0.679688
vt 0.085938 0.601562
vt 0.195312 0.539062
vt 0.195312 0.585938
vt 0.132812 0.648438
vt 0.476562 0.820312
vt 0.414062 0.929688
vt 0.367188 0.882812
vt 0.429688 0.820312
vt 0.023438 0.820312
vt 0.023438 0.710938
vt 0.070312 0.710938
vt 0.070312 0.820312
vt 0.476562 0.710938
vt 0.429688 0.710938
vt 0.304688 0.992188
vt 0.304688 0.945312
vt 0.226562 0.851562
vt 0.742188 0.820312
vt 0.773438 0.820312
vt 0.882812 0.929688
vt 0.789062 0.976562
vt 0.773438 0.742188
vt 0.742188 0.742188
vt 0.789062 0.585938
vt 0.882812 0.632812
vt 0.773438 0.789062
vt 0.929688 0.835938
vt 0.695312 0.773438
vt 0.695312 0.789062
vt 0.539062 0.835938
vt 0.539062 0.726562
vt 0.726562 0.742188
vt 0.679688 0.585938
vt 0.773438 0.773438
vt 0.929688 0.726562
vt 0.695312 0.820312
vt 0.585938 0.929688
vt 0.726562 0.820312
vt 0.679688 0.976562
vt 0.695312 0.742188
vt 0.585938 0.632812
vt 0.648438 0.070312
vt 0.648438 0.117188
vt 0.585938 0.164062
vt 0.523438 0.117188
vt 0.523438 0.070312
vt 0.585938 0.023438
vt 0.179688 0.023438
vt 0.335938 0.023438
vt 0.335938 0.476562
vt 0.179688 0.476562
vt 0.257812 0.023438
vt 0.398438 0.023438
vt 0.398438 0.476562
vt 0.257812 0.476562
vt 0.117188 0.023438
vt 0.257812 0.023438
vt 0.257812 0.476562
vt 0.117188 0.476562
vt 0.117188 0.023438
vt 0.117188 0.476562
vt 0.179688 0.023438
vt 0.335938 0.023438
vt 0.335938 0.476562
vt 0.179688 0.476562
vt 0.398438 0.023438
vt 0.398438 0.476562
vn -0.2846 0.9574 -0.0491
vn 0.0746 0.8042 0.5897
vn -0.2355 0.9626 -0.1338
vn 0.0768 0.9959 -0.0484
vn -0.2355 0.9626 0.1338
vn 0.0290 0.9908 0.1324
vn -0.2400 0.7701 -0.5911
vn -0.0542 0.9819 -0.1814
vn -0.2846 0.9574 0.0491
vn 0.3457 0.8335 -0.4309
vn -0.6720 0.7233 0.1589
vn 0.0768 0.9959 0.0484
vn 0.0290 0.9908 -0.1324
vn 0.5019 0.8505 0.1575
vn -0.6720 0.7233 -0.1589
vn -0.2400 0.7701 0.5911
vn 0.3457 0.8335 0.4309
vn 0.5019 0.8505 -0.1575
vn -0.5135 0.7405 -0.4336
vn 0.0746 0.8042 -0.5897
vn -0.1511 0.9716 0.1822
vn -0.5135 0.7405 0.4336
vn -0.1101 -0.9713 -0.2107
vn 0.0230 -0.9576 0.2873
vn -0.1872 -0.9793 -0.0772
vn 0.3837 -0.9203 -0.0765
vn 0.1760 -0.9418 0.2866
vn -0.1872 -0.9793 0.0772
vn 0.3079 -0.9281 -0.2093
vn 0.0230 -0.9576 -0.2873
vn 0.3079 -0.9281 0.2093
vn -0.1101 -0.9713 0.2107
vn 0.1760 -0.9418 -0.2866
vn 0.3837 -0.9203 0.0765
vn -0.0542 0.9819 0.1814
vn 0.0000 -1.0000 0.0000
vn -0.0067 0.1803 -0.9836
vn -0.8589 0.1425 0.4919
vn 0.8436 0.2180 0.4908
vn -0.8589 0.1425 -0.4919
vn -0.0067 0.1803 0.9836
vn 0.8436 0.2180 -0.4908
vn 0.2891 0.9517 0.1036
vn 0.2891 0.9517 -0.1036
vn 0.1856 0.9410 -0.2829
vn 0.0071 0.9226 0.3857
vn -0.1983 0.9014 0.3850
vn -0.3754 0.8831 0.2814
vn -0.4775 0.8726 0.1029
vn -0.4775 0.8726 -0.1029
vn -0.3754 0.8831 -0.2814
vn -0.1983 0.9014 -0.3850
vn 0.0071 0.9226 -0.3857
vn 0.1856 0.9410 0.2829
vn -0.1511 0.9716 -0.1822
usemtl Material
s off
f 58/1/1 56/2/1 1/3/1
f 7/4/2 8/5/2 48/6/2 51/7/2
f 60/8/3 58/1/3 1/3/3
f 45/9/4 43/10/4 1/3/4
f 54/11/5 52/12/5 1/3/5
f 49/13/6 46/14/6 1/3/6
f 13/15/7 2/16/7 61/17/7 39/18/7
f 41/19/8 38/20/8 1/3/8
f 56/2/9 54/11/9 1/3/9
f 11/21/10 12/22/10 40/23/10 42/24/10
f 4/25/11 5/26/11 55/27/11 57/28/11
f 46/14/12 45/9/12 1/3/12
f 43/10/13 41/19/13 1/3/13
f 9/29/14 10/30/14 44/31/14 47/32/14
f 3/33/15 4/25/15 57/28/15 59/34/15
f 6/35/16 7/4/16 51/7/16 53/36/16
f 8/5/17 9/29/17 47/32/17 48/6/17
f 10/30/18 11/21/18 42/24/18 44/31/18
f 2/16/19 3/33/19 59/34/19 61/17/19
f 12/22/20 13/15/20 39/18/20 40/23/20
f 52/12/21 50/37/21 1/3/21
f 5/26/22 6/35/22 53/36/22 55/27/22
f 37/38/23 36/39/23 3/40/23 2/41/23
f 33/42/24 32/43/24 7/44/24 6/45/24
f 36/39/25 35/46/25 4/47/25 3/40/25
f 29/48/26 28/49/26 11/50/26 10/51/26
f 32/43/27 31/52/27 8/53/27 7/44/27
f 35/46/28 34/54/28 5/55/28 4/47/28
f 28/49/29 27/56/29 12/57/29 11/50/29
f 26/58/30 37/38/30 2/41/30 13/59/30
f 31/52/31 30/60/31 9/61/31 8/53/31
f 34/54/32 33/42/32 6/45/32 5/55/32
f 27/56/33 26/58/33 13/59/33 12/57/33
f 30/60/34 29/48/34 10/51/34 9/61/34
f 50/37/35 49/13/35 1/3/35
f 14/62/36 15/63/36 16/64/36 17/65/36 18/66/36 19/67/36
f 14/68/37 19/69/37 25/70/37 20/71/37
f 18/72/38 17/73/38 23/74/38 24/75/38
f 16/76/39 15/77/39 21/78/39 22/79/39
f 19/80/40 18/72/40 24/75/40 25/81/40
f 17/82/41 16/83/41 22/84/41 23/85/41
f 15/77/42 14/86/42 20/87/42 21/78/42
f 45/9/43 46/14/43 47/32/43 44/31/43
f 43/10/44 45/9/44 44/31/44 42/24/44
f 41/19/45 43/10/45 42/24/45 40/23/45
f 49/13/46 50/37/46 51/7/46 48/6/46
f 50/37/47 52/12/47 53/36/47 51/7/47
f 52/12/48 54/11/48 55/27/48 53/36/48
f 54/11/49 56/2/49 57/28/49 55/27/49
f 56/2/50 58/1/50 59/34/50 57/28/50
f 58/1/51 60/8/51 61/17/51 59/34/51
f 60/8/52 38/20/52 39/18/52 61/17/52
f 38/20/53 41/19/53 40/23/53 39/18/53
f 46/14/54 49/13/54 48/6/54 47/32/54
f 38/20/55 60/8/55 1/3/55
