# Blender v2.81 (sub 16) OBJ File: '2.blend'
# www.blender.org
mtllib russula_aurata.mtl
o mushroom_Cylinder
v -0.000000 -0.379818 -0.039074
v 0.019537 -0.379818 -0.033839
v 0.033839 -0.379816 -0.019537
v 0.039074 -0.379816 0.000000
v 0.033839 -0.379816 0.019537
v 0.019537 -0.379818 0.033840
v -0.000000 -0.379818 0.039075
v -0.019537 -0.379818 0.033840
v -0.033839 -0.379816 0.019537
v -0.039074 -0.379816 0.000000
v -0.033839 -0.379816 -0.019537
v -0.019537 -0.379818 -0.033839
v -0.000000 -0.362658 0.000000
v -0.000000 -0.362936 -0.172861
v -0.000000 -0.343054 -0.122535
v 0.061269 -0.339693 -0.106120
v 0.086448 -0.358265 -0.149732
v 0.106123 -0.332283 -0.061270
v 0.149800 -0.347957 -0.086487
v 0.122542 -0.332283 0.000000
v 0.172980 -0.347954 0.000000
v 0.106123 -0.332283 0.061270
v 0.149800 -0.347957 0.086487
v 0.061269 -0.339693 0.106120
v 0.086448 -0.358265 0.149732
v -0.000000 -0.343054 0.122535
v 0.000000 -0.362936 0.172861
v -0.061269 -0.339693 0.106120
v -0.086448 -0.358265 0.149732
v -0.106123 -0.332283 0.061270
v -0.149800 -0.347957 0.086487
v -0.122543 -0.332283 0.000000
v -0.172980 -0.347954 0.000000
v -0.106123 -0.332283 -0.061270
v -0.149800 -0.347957 -0.086487
v -0.061269 -0.339693 -0.106120
v -0.086448 -0.358265 -0.149732
v 0.022511 -0.501935 -0.038990
v 0.045022 -0.501935 0.000000
v 0.022511 -0.501935 0.038990
v -0.022511 -0.501935 0.038990
v -0.045022 -0.501935 0.000000
v -0.022511 -0.501935 -0.038990
v 0.022511 -0.375103 -0.038990
v 0.045022 -0.375103 0.000000
v 0.022511 -0.375103 0.038990
v -0.022511 -0.375103 0.038990
v -0.045022 -0.375103 0.000000
v -0.022511 -0.375103 -0.038990
vt 0.726982 0.717093
vt 0.636390 0.560182
vt 0.753434 0.528867
vt 0.753434 0.710005
vt 0.398438 0.679688
vt 0.335938 0.617188
vt 0.257812 0.757812
vt 0.429688 0.757812
vt 0.398438 0.835938
vt 0.335938 0.898438
vt 0.257812 0.929688
vt 0.179688 0.898438
vt 0.117188 0.835938
vt 0.085938 0.757812
vt 0.117188 0.679688
vt 0.799251 0.736457
vt 0.956254 0.645811
vt 0.987637 0.762909
vt 0.806338 0.762909
vt 0.179688 0.617188
vt 0.257812 0.585938
vt 0.707618 0.736457
vt 0.550614 0.645811
vt 0.700530 0.762910
vt 0.519231 0.762910
vt 0.707618 0.789362
vt 0.550614 0.880008
vt 0.726982 0.808726
vt 0.636390 0.965637
vt 0.753434 0.815814
vt 0.753434 0.996952
vt 0.779886 0.808726
vt 0.870479 0.965636
vt 0.799251 0.789362
vt 0.956254 0.880008
vt 0.779886 0.717093
vt 0.870479 0.560182
vt 0.367188 0.554688
vt 0.257812 0.523438
vt 0.460938 0.648438
vt 0.492188 0.757812
vt 0.460938 0.882812
vt 0.367188 0.960938
vt 0.257812 0.992188
vt 0.132812 0.960938
vt 0.054688 0.882812
vt 0.023438 0.757812
vt 0.054688 0.648438
vt 0.132812 0.554688
vt 0.632812 0.054688
vt 0.632812 0.101562
vt 0.585938 0.132812
vt 0.539062 0.101562
vt 0.539062 0.054688
vt 0.585938 0.023438
vt 0.179688 0.023438
vt 0.335938 0.023438
vt 0.335938 0.476562
vt 0.179688 0.476562
vt 0.257812 0.023438
vt 0.398438 0.023438
vt 0.398438 0.476562
vt 0.257812 0.476562
vt 0.117188 0.023438
vt 0.257812 0.023438
vt 0.257812 0.476562
vt 0.117188 0.476562
vt 0.117188 0.023438
vt 0.117188 0.476562
vt 0.179688 0.023438
vt 0.335938 0.023438
vt 0.335938 0.476562
vt 0.179688 0.476562
vt 0.398438 0.023438
vt 0.398438 0.476562
vn -0.0786 -0.9883 -0.1311
vn -0.2345 0.9693 0.0744
vn -0.2401 0.9686 0.0643
vn -0.2401 0.9686 -0.0643
vn -0.2345 0.9693 -0.0744
vn -0.0960 0.9829 -0.1573
vn 0.0960 0.9829 -0.1573
vn 0.2345 0.9693 -0.0744
vn 0.2401 0.9686 -0.0643
vn 0.2401 0.9686 0.0643
vn 0.2310 -0.9710 -0.0619
vn 0.2345 0.9693 0.0744
vn 0.0960 0.9829 0.1573
vn -0.2071 -0.9752 -0.0777
vn -0.2310 -0.9710 -0.0619
vn -0.2310 -0.9710 0.0619
vn -0.2071 -0.9752 0.0777
vn -0.0786 -0.9883 0.1311
vn 0.0786 -0.9883 0.1311
vn 0.2071 -0.9752 0.0777
vn 0.2071 -0.9752 -0.0777
vn 0.0786 -0.9883 -0.1311
vn 0.2310 -0.9710 0.0619
vn 0.0478 0.9288 -0.3674
vn 0.1563 0.9377 -0.3102
vn 0.2958 0.9520 -0.0793
vn 0.2958 0.9520 0.0793
vn 0.1563 0.9377 0.3102
vn 0.0478 0.9288 0.3674
vn -0.0478 0.9288 0.3674
vn -0.1563 0.9377 0.3102
vn -0.2958 0.9520 0.0793
vn -0.2958 0.9520 -0.0793
vn -0.1563 0.9377 -0.3102
vn -0.0478 0.9288 -0.3674
vn -0.0960 0.9829 0.1573
vn 0.0000 -1.0000 -0.0000
vn -0.0000 0.0000 -1.0000
vn -0.8660 0.0000 0.5000
vn 0.8660 0.0000 0.5000
vn -0.8660 0.0000 -0.5000
vn 0.0000 0.0000 1.0000
vn 0.8660 0.0000 -0.5000
usemtl Material
s off
f 12/1/1 37/2/1 14/3/1 1/4/1
f 18/5/2 16/6/2 13/7/2
f 20/8/3 18/5/3 13/7/3
f 22/9/4 20/8/4 13/7/4
f 24/10/5 22/9/5 13/7/5
f 26/11/6 24/10/6 13/7/6
f 28/12/7 26/11/7 13/7/7
f 30/13/8 28/12/8 13/7/8
f 32/14/9 30/13/9 13/7/9
f 34/15/10 32/14/10 13/7/10
f 3/16/11 19/17/11 21/18/11 4/19/11
f 36/20/12 34/15/12 13/7/12
f 15/21/13 36/20/13 13/7/13
f 11/22/14 35/23/14 37/2/14 12/1/14
f 10/24/15 33/25/15 35/23/15 11/22/15
f 9/26/16 31/27/16 33/25/16 10/24/16
f 8/28/17 29/29/17 31/27/17 9/26/17
f 7/30/18 27/31/18 29/29/18 8/28/18
f 6/32/19 25/33/19 27/31/19 7/30/19
f 5/34/20 23/35/20 25/33/20 6/32/20
f 2/36/21 17/37/21 19/17/21 3/16/21
f 1/4/22 14/3/22 17/37/22 2/36/22
f 4/19/23 21/18/23 23/35/23 5/34/23
f 17/38/24 14/39/24 15/21/24 16/6/24
f 19/40/25 17/38/25 16/6/25 18/5/25
f 21/41/26 19/40/26 18/5/26 20/8/26
f 23/42/27 21/41/27 20/8/27 22/9/27
f 25/43/28 23/42/28 22/9/28 24/10/28
f 27/44/29 25/43/29 24/10/29 26/11/29
f 29/45/30 27/44/30 26/11/30 28/12/30
f 31/46/31 29/45/31 28/12/31 30/13/31
f 33/47/32 31/46/32 30/13/32 32/14/32
f 35/48/33 33/47/33 32/14/33 34/15/33
f 37/49/34 35/48/34 34/15/34 36/20/34
f 14/39/35 37/49/35 36/20/35 15/21/35
f 16/6/36 15/21/36 13/7/36
f 38/50/37 39/51/37 40/52/37 41/53/37 42/54/37 43/55/37
f 38/56/38 43/57/38 49/58/38 44/59/38
f 42/60/39 41/61/39 47/62/39 48/63/39
f 40/64/40 39/65/40 45/66/40 46/67/40
f 43/68/41 42/60/41 48/63/41 49/69/41
f 41/70/42 40/71/42 46/72/42 47/73/42
f 39/65/43 38/74/43 44/75/43 45/66/43
