# Blender v2.81 (sub 16) OBJ File: 'waterlily.blend'
# www.blender.org
mtllib waterlily1.mtl
o Waterlily_Plane.004
v -0.171652 -0.121486 0.368514
v -0.171651 -0.490000 0.368514
v -0.171652 -0.121486 -0.368514
v -0.171651 -0.490000 -0.368514
v 0.088927 -0.121486 0.260579
v 0.088927 -0.490000 0.260579
v -0.432230 -0.121486 -0.260579
v -0.432230 -0.490000 -0.260579
v -0.408528 -0.121486 0.282298
v -0.408528 -0.490000 0.282298
v 0.065225 -0.121486 -0.282298
v 0.065225 -0.490000 -0.282298
v 0.196862 -0.121486 0.000000
v 0.196862 -0.490000 -0.000000
v -0.540165 -0.121486 0.000000
v -0.540165 -0.490000 -0.000000
v -0.500000 -0.490000 0.500000
v 0.500000 -0.490000 0.500000
v -0.500000 -0.490000 -0.500000
v 0.500000 -0.490000 -0.500000
v -0.171651 -0.490000 -0.000000
v -0.171652 -0.121486 0.000000
vt 0.273438 1.000000
vt 0.273438 0.734375
vt 0.000000 0.734375
vt 0.000000 1.000000
vt 0.000000 0.734375
vt 0.000000 1.000000
vt 0.546875 0.734375
vt 0.546875 1.000000
vt 0.000000 0.734375
vt 0.000000 1.000000
vt 0.546875 1.000000
vt 0.546875 0.734375
vt 0.546875 1.000000
vt 0.546875 0.734375
vt 0.000000 1.000000
vt 0.000000 0.734375
vt 0.546875 1.000000
vt 0.546875 0.734375
vt 0.585938 0.585938
vt 0.585938 0.000000
vt 0.000000 0.000000
vt 0.000000 0.585938
vn 1.0000 0.0000 -0.0000
vn 0.7071 0.0000 -0.7071
vn 0.7660 0.0000 0.6428
vn -0.0000 0.0000 -1.0000
vn 0.0000 1.0000 0.0000
usemtl flower
s off
f 22/1/1 21/2/1 4/3/1 3/4/1
f 22/1/2 21/2/2 8/5/2 7/6/2
f 22/1/3 21/2/3 12/7/3 11/8/3
f 22/1/4 21/2/4 16/9/4 15/10/4
f 5/11/2 6/12/2 21/2/2 22/1/2
f 13/13/4 14/14/4 21/2/4 22/1/4
f 9/15/3 10/16/3 21/2/3 22/1/3
f 1/17/1 2/18/1 21/2/1 22/1/1
usemtl leaf
f 17/19/5 18/20/5 20/21/5 19/22/5
